<svg width="40" height="40" fill="none" xmlns="http://www.w3.org/2000/svg"><path d="M25.988 5.045C24.468 3.404 22.343 2.5 20 2.5c-2.356 0-4.487.898-6 2.53-1.53 1.649-2.275 3.89-2.1 6.31.347 4.776 3.98 8.66 8.1 8.66 4.12 0 7.747-3.884 8.1-8.658.177-2.398-.573-4.635-2.113-6.297zM33.75 37.5H6.25a2.42 2.42 0 01-1.89-.87c-.509-.607-.713-1.436-.562-2.274.66-3.658 2.718-6.73 5.952-8.887C12.623 23.554 16.263 22.5 20 22.5s7.377 1.055 10.25 2.969c3.234 2.156 5.292 5.229 5.952 8.886.151.839-.054 1.668-.561 2.275a2.422 2.422 0 01-1.891.87z" fill="#3671E9"/></svg>