<svg width="40" height="40" fill="none" xmlns="http://www.w3.org/2000/svg"><path d="M32.374 7.636A17.5 17.5 0 107.626 32.385 17.5 17.5 0 1032.374 7.636zM5 20.011c0-1.328.176-2.65.524-3.93.573 1.233 1.406 2.3 1.972 3.566.732 1.629 2.698 1.177 3.566 2.604.77 1.266-.053 2.867.524 4.192.419.962 1.406 1.172 2.088 1.875.696.71.68 1.682.787 2.607a23.837 23.837 0 00.588 3.248C9.203 32.12 5 26.547 5 20.011zm15 15c-.838 0-1.674-.07-2.5-.21.009-.212.013-.41.034-.547.19-1.242.811-2.457 1.65-3.386.83-.917 1.965-1.538 2.665-2.578.686-1.016.892-2.383.609-3.57-.416-1.753-2.798-2.338-4.083-3.29-.738-.546-1.395-1.391-2.365-1.46-.447-.031-.82.065-1.264-.05-.406-.105-.725-.323-1.158-.266-.808.106-1.318.97-2.187.853-.824-.11-1.674-1.075-1.861-1.86-.24-1.01.558-1.337 1.413-1.427.357-.037.758-.078 1.101.053.452.167.665.61 1.07.833.76.417.914-.25.798-.924-.174-1.011-.377-1.423.524-2.119.625-.48 1.16-.827 1.06-1.688-.06-.507-.337-.736-.079-1.24.197-.383.735-.73 1.086-.958.905-.59 3.878-.547 2.664-2.2-.357-.485-1.016-1.352-1.64-1.471-.782-.148-1.13.724-1.674 1.109-.562.397-1.657.849-2.22.234-.759-.827.502-1.099.78-1.677.13-.27 0-.643-.217-.996.282-.119.569-.229.86-.33.182.135.399.216.625.234.522.035 1.015-.248 1.472.108.506.39.87.884 1.543 1.006.65.118 1.338-.26 1.499-.926.098-.405 0-.832-.094-1.25 2.922.016 5.774.892 8.203 2.516-.156-.06-.343-.052-.573.055-.474.22-1.146.781-1.202 1.337-.063.631.868.72 1.31.72.664 0 1.337-.296 1.123-1.064-.093-.332-.22-.678-.423-.888.49.34.96.71 1.406 1.105l-.021.021c-.45.469-.973.84-1.28 1.41-.218.402-.462.592-.902.696-.242.057-.52.078-.722.24-.566.446-.244 1.516.292 1.838.677.405 1.682.214 2.193-.364.4-.454.634-1.24 1.352-1.24.316 0 .62.124.846.345.297.308.238.595.301.98.112.683.714.312 1.08-.032.268.475.509.965.722 1.466-.403.58-.723 1.213-1.692.537-.58-.406-.938-.994-1.667-1.177-.637-.156-1.289.006-1.918.115-.715.124-1.562.179-2.105.72-.524.522-.801 1.22-1.359 1.745-1.079 1.015-1.534 2.124-.836 3.56.672 1.38 2.078 2.13 3.594 2.031 1.49-.099 3.037-.963 2.995 1.202-.016.766.144 1.297.38 2.009.217.656.202 1.292.252 1.969.048.793.172 1.58.37 2.35A14.98 14.98 0 0120 35.01z" fill="#3671E9"/></svg>