<svg width="40" height="40" viewBox="0 0 32 32" fill="none" xmlns="http://www.w3.org/2000/svg"><path d="M30 31H3a2 2 0 01-2-2V2a1 1 0 012 0v27h27a1 1 0 010 2z" fill="#3671E9"/><path d="M9.75 27h-2.5A2.25 2.25 0 015 24.75v-9.5A2.25 2.25 0 017.25 13h2.5A2.25 2.25 0 0112 15.25v9.5A2.25 2.25 0 019.75 27zm9 0h-2.5A2.25 2.25 0 0114 24.75v-12.5A2.25 2.25 0 0116.25 10h2.5A2.25 2.25 0 0121 12.25v12.5A2.25 2.25 0 0118.75 27zm8.977 0h-2.5a2.25 2.25 0 01-2.25-2.25V8.25A2.25 2.25 0 0125.227 6h2.5a2.25 2.25 0 012.25 2.25v16.5a2.25 2.25 0 01-2.25 2.25z" fill="#3671E9"/></svg>